<svg width="32" height="32" version="1.1" xmlns="http://www.w3.org/2000/svg" desc="Created with imagetracer.js version 1.2.6" ><path fill="rgb(89,222,171)" stroke="rgb(89,222,171)" stroke-width="1" opacity="0.8980392156862745" d="M 15 3 L 19 4.5 L 23 10.5 L 20.5 11 L 16.5 5 L 14.5 6 L 15 4.5 L 15 3 Z " /><path fill="rgb(89,222,171)" stroke="rgb(89,222,171)" stroke-width="1" opacity="0.8980392156862745" d="M 15 25 L 18.5 25 L 23 28.5 L 20.5 29 L 15 27 L 15 25 Z " /><path fill="rgb(0,0,0)" stroke="rgb(0,0,0)" stroke-width="1" opacity="0" d="M 0 0 L 32 0 L 32 32 L 0 32 L 0 0 Z M 15 2 L 11 8 L 2 12 Q 1 18 6 20 L 6 29 L 8 30 Q 14 31 16 27 L 22 30 L 25 30 L 26 29 L 26 20 Q 31 18 30 12 L 29 10 L 23 9 L 20 5 Q 19 1 15 2 Z " /><path fill="rgb(0,0,0)" stroke="rgb(0,0,0)" stroke-width="1" opacity="0" d="M 15.5 6 L 18 7.5 L 20.5 12 L 27 13 L 22 20.5 Q 24.3 21.7 23 26.5 L 21.5 26 L 14.5 24 L 9.5 27 L 9 21.5 L 9 19.5 L 5 13 L 11.5 12 L 13 10.5 L 15.5 6 Z " /><path fill="rgb(87,223,173)" stroke="rgb(87,223,173)" stroke-width="1" opacity="0.20392156862745098" d="M 14.5 2 Q 19.3 1.3 20 4.5 L 22.5 9 L 25 9.5 L 22.5 10 L 17.5 3 Q 13.3 2.3 12.5 5 L 14.5 2 Z " /><path fill="rgb(87,223,173)" stroke="rgb(87,223,173)" stroke-width="1" opacity="0.20392156862745098" d="M 15.5 5 L 18 6.5 L 16.5 6 L 14.5 7 L 15.5 5 Z " /><path fill="rgb(87,223,173)" stroke="rgb(87,223,173)" stroke-width="1" opacity="0.20392156862745098" d="M 12.5 10 L 11.5 12 L 12.5 10 Z " /><path fill="rgb(87,223,173)" stroke="rgb(87,223,173)" stroke-width="1" opacity="0.20392156862745098" d="M 19.5 10 L 22 11.5 L 20.5 12 L 19.5 10 Z " /><path fill="rgb(87,223,173)" stroke="rgb(87,223,173)" stroke-width="1" opacity="0.20392156862745098" d="M 28.5 10 L 29.5 12 L 28.5 10 Z " /><path fill="rgb(87,223,173)" stroke="rgb(87,223,173)" stroke-width="1" opacity="0.20392156862745098" d="M 24.5 12 L 28 13.5 L 26.5 13 Q 23.5 13.5 24.5 12 Z " /><path fill="rgb(87,223,173)" stroke="rgb(87,223,173)" stroke-width="1" opacity="0.20392156862745098" d="M 29.5 15 L 26 19.5 L 25.5 23 L 25 19.5 L 29.5 15 Z " /><path fill="rgb(87,223,173)" stroke="rgb(87,223,173)" stroke-width="1" opacity="0.20392156862745098" d="M 24.5 17 L 23.5 19 L 24.5 17 Z " /><path fill="rgb(87,223,173)" stroke="rgb(87,223,173)" stroke-width="1" opacity="0.20392156862745098" d="M 14.5 24 L 18 24.5 L 14.5 25 L 14.5 24 Z " /><path fill="rgb(87,223,173)" stroke="rgb(87,223,173)" stroke-width="1" opacity="0.20392156862745098" d="M 23.5 24 L 24 26.5 L 23 26.5 L 23.5 24 Z " /><path fill="rgb(87,223,173)" stroke="rgb(87,223,173)" stroke-width="1" opacity="0.20392156862745098" d="M 19.5 25 L 22 26.5 L 20.5 27 L 19.5 25 Z " /><path fill="rgb(87,223,173)" stroke="rgb(87,223,173)" stroke-width="1" opacity="0.20392156862745098" d="M 25.5 28 L 24.5 30 L 21 29.5 L 25.5 28 Z " /><path fill="rgb(107,241,151)" stroke="rgb(107,241,151)" stroke-width="1" opacity="0.8901960784313725" d="M 23.5 10 Q 29 9 30 12.5 L 30 14.5 L 25 19.5 L 25 22.5 L 26 27.5 L 23.5 29 L 22.5 27 Q 25.1 27.8 24 24.5 L 23 19.5 L 25 16 Q 27.7 17.1 27 14.5 Q 29.3 13.3 26.5 12 L 22 11.5 L 23.5 10 Z " /><path fill="rgb(54,184,210)" stroke="rgb(54,184,210)" stroke-width="1" opacity="0.4823529411764706" d="M 3.5 10 L 6 10.5 L 3 11 L 2.5 13 L 2 11.5 L 3.5 10 Z " /><path fill="rgb(54,184,210)" stroke="rgb(54,184,210)" stroke-width="1" opacity="0.4823529411764706" d="M 4 12 L 8 12.5 L 5 13 L 9 18.5 L 4 14.5 L 4 12 Z " /><path fill="rgb(54,184,210)" stroke="rgb(54,184,210)" stroke-width="1" opacity="0.4823529411764706" d="M 2.5 15 L 7 19.5 L 7 24.5 L 6 24.5 L 6 19.5 L 2.5 15 Z " /><path fill="rgb(54,184,210)" stroke="rgb(54,184,210)" stroke-width="1" opacity="0.4823529411764706" d="M 8.5 23 L 10 27.5 L 8 26.5 L 8.5 23 Z " /><path fill="rgb(62,193,202)" stroke="rgb(62,193,202)" stroke-width="1" opacity="0.9529411764705882" d="M 14.5 3 L 15 4.5 L 11.5 11 L 4 12 L 4 14.5 L 9 19.5 L 9 22.5 L 8 26.5 Q 9.3 29.3 10.5 27 L 14.5 25 L 15 26.5 Q 12.7 30 7 29 L 6 25.5 Q 8.3 24.3 7 19.5 L 2 13.5 L 3 11 L 9.5 10 L 12 7.5 L 14.5 3 Z " /></svg>